P3
100 50
255
38 0 17 37 0 17 37 0 17 36 0 18 35 0 18 35 0 18 34 0 18 33 0 19 33 0
19 32 0 19 31 0 19 31 0 19 30 0 20 29 0 20 29 0 20 28 0 20 27 0 21 27
0 21 26 0 21 25 0 21 25 0 22 24 0 22 23 0 22 23 0 22 22 0 23 21 0 23
21 0 23 20 0 23 19 0 24 18 0 24 18 0 24 17 0 24 16 0 25 16 0 25 15 0
25 14 0 25 13 0 26 13 0 26 12 0 26 11 0 26 10 0 27 10 0 27 9 0 27 8 0
27 7 0 28 6 0 28 6 0 28 5 0 28 4 0 28 3 0 29 104 104 104 106 106 106
108 108 108 110 110 110 112 112 112 114 114 114 116 116 116 118 118
118 119 0 0 121 0 0 122 0 0 124 0 0 125 0 0 127 0 0 128 0 0 129 0 0
130 130 130 132 132 132 133 133 133 134 134 134 135 135 135 136 136
136 137 137 137 138 0 0 139 0 0 140 0 0 141 0 0 142 0 0 142 0 0 143 0
0 144 144 144 145 145 145 146 146 146 146 146 146 147 147 147 148 148
148 148 148 148 149 149 149 150 0 0 150 0 0 151 0 0 151 0 0 152 0 0
152 0 0 153 0 0 154 0 0 154 0 0 154 154 154 155 155 155 155 155 155
38 0 17 37 0 17 37 0 17 36 0 18 35 0 18 35 0 18 34 0 18 33 0 18 33 0
19 32 0 19 31 0 19 31 0 19 30 0 20 29 0 20 29 0 20 28 0 20 27 0 21 27
0 21 26 0 21 25 0 21 25 0 22 24 0 22 23 0 22 23 0 22 22 0 23 21 0 23
21 0 23 20 0 23 19 0 24 18 0 24 18 0 24 17 0 24 16 0 25 16 0 25 15 0
25 14 0 25 13 0 26 13 0 26 12 0 26 11 0 26 10 0 27 9 0 27 9 0 27 8 0
27 7 0 27 6 0 28 6 0 28 5 0 28 4 0 28 3 0 28 105 105 105 107 107 107
109 109 109 111 111 111 113 113 113 115 115 115 117 117 117 118 118
118 120 120 120 122 122 122 123 0 0 125 0 0 126 0 0 127 0 0 129 0 0
130 0 0 131 0 0 132 132 132 133 133 133 135 135 135 136 136 136 137
137 137 138 138 138 139 139 139 140 0 0 140 0 0 141 0 0 142 0 0 143 0
0 144 0 0 145 0 0 145 145 145 146 146 146 147 147 147 148 148 148 148
148 148 149 149 149 150 150 150 150 150 150 151 0 0 151 0 0 152 0 0
152 0 0 153 0 0 154 0 0 154 0 0 155 0 0 155 0 0 155 155 155 156 156
156
38 0 17 37 0 17 37 0 17 36 0 17 35 0 18 35 0 18 34 0 18 33 0 18 33 0
19 32 0 19 31 0 19 31 0 19 30 0 19 29 0 20 29 0 20 28 0 20 27 0 20 27
0 21 26 0 21 25 0 21 25 0 21 24 0 22 23 0 22 23 0 22 22 0 22 21 0 23
20 0 23 20 0 23 19 0 23 18 0 24 18 0 24 17 0 24 16 0 24 15 0 25 15 0
25 14 0 25 13 0 25 13 0 26 12 0 26 11 0 26 10 0 26 9 0 27 9 0 27 8 0
27 7 0 27 6 0 28 6 0 28 5 0 28 4 0 28 3 0 28 106 106 106 108 108 108
110 110 110 112 112 112 114 114 114 116 116 116 118 118 118 119 119
119 121 121 121 122 122 122 124 124 124 125 0 0 127 0 0 128 0 0 129 0
0 131 0 0 132 0 0 133 0 0 134 134 134 135 135 135 136 136 136 137 137
137 138 138 138 139 139 139 140 140 140 141 0 0 142 0 0 143 0 0 144 0
0 144 0 0 145 0 0 146 0 0 147 147 147 147 147 147 148 148 148 149 149
149 149 149 149 150 150 150 151 151 151 151 0 0 152 0 0 152 0 0 153 0
0 154 0 0 154 0 0 155 0 0 155 0 0 156 0 0 156 156 156 156 156 156
38 0 17 37 0 17 36 0 17 36 0 17 35 0 18 34 0 18 34 0 18 33 0 18 33 0
18 32 0 19 31 0 19 31 0 19 30 0 19 29 0 20 29 0 20 28 0 20 27 0 20 27
0 21 26 0 21 25 0 21 25 0 21 24 0 22 23 0 22 22 0 22 22 0 22 21 0 23
20 0 23 20 0 23 19 0 23 18 0 24 18 0 24 17 0 24 16 0 24 15 0 25 15 0
25 14 0 25 13 0 25 12 0 26 12 0 26 11 0 26 10 0 26 9 0 27 9 0 27 8 0
27 7 0 27 6 0 27 6 0 28 5 0 28 4 0 28 3 0 28 107 0 0 109 0 0 111 0 0
113 0 0 115 0 0 117 117 117 119 119 119 120 120 120 122 122 122 123
123 123 125 125 125 126 126 126 128 128 128 129 0 0 130 0 0 131 0 0
133 0 0 134 0 0 135 0 0 136 136 136 137 137 137 138 138 138 139 139
139 140 140 140 141 141 141 142 142 142 143 0 0 143 0 0 144 0 0 145 0
0 146 0 0 147 0 0 147 147 147 148 148 148 149 149 149 149 149 149 150
150 150 151 151 151 151 151 151 152 152 152 152 0 0 153 0 0 154 0 0
154 0 0 155 0 0 155 0 0 156 0 0 156 0 0 157 0 0 157 157 157
38 0 17 37 0 17 36 0 17 36 0 17 35 0 17 34 0 18 34 0 18 33 0 18 32 0
18 32 0 19 31 0 19 30 0 19 30 0 19 29 0 20 28 0 20 28 0 20 27 0 20 26
0 20 26 0 21 25 0 21 24 0 21 24 0 21 23 0 22 22 0 22 22 0 22 21 0 22
20 0 23 20 0 23 19 0 23 18 0 23 18 0 24 17 0 24 16 0 24 15 0 24 15 0
25 14 0 25 13 0 25 12 0 25 12 0 26 11 0 26 10 0 26 9 0 26 9 0 27 8 0
27 7 0 27 6 0 27 6 0 27 5 0 28 4 0 28 3 0 28 108 0 0 110 0 0 112 0 0
114 0 0 116 0 0 118 0 0 119 0 0 121 121 121 123 123 123 124 124 124
126 126 126 127 127 127 128 128 128 130 130 130 131 0 0 132 0 0 133 0
0 135 0 0 136 0 0 137 0 0 138 138 138 139 139 139 140 140 140 141 141
141 142 142 142 142 142 142 143 0 0 144 0 0 145 0 0 146 0 0 146 0 0
147 0 0 148 0 0 149 149 149 149 149 149 150 150 150 151 151 151 151
151 151 152 152 152 152 152 152 153 153 153 154 0 0 154 0 0 155 0 0
155 0 0 156 0 0 156 0 0 157 0 0 157 0 0 158 158 158
38 0 17 37 0 17 36 0 17 36 0 17 35 0 17 34 0 18 34 0 18 33 0 18 32 0
18 32 0 18 31 0 19 30 0 19 30 0 19 29 0 19 28 0 20 28 0 20 27 0 20 26
0 20 26 0 21 25 0 21 24 0 21 24 0 21 23 0 22 22 0 22 22 0 22 21 0 22
20 0 23 20 0 23 19 0 23 18 0 23 18 0 24 17 0 24 16 0 24 15 0 24 15 0
25 14 0 25 13 0 25 12 0 25 12 0 26 11 0 26 10 0 26 9 0 26 9 0 26 8 0
27 7 0 27 6 0 27 6 0 27 5 0 27 4 0 28 3 0 28 109 0 0 111 0 0 113 0 0
115 0 0 117 0 0 119 0 0 120 0 0 122 0 0 123 0 0 125 125 125 126 126
126 128 128 128 129 129 129 130 130 130 132 132 132 133 0 0 134 0 0
135 0 0 136 0 0 137 0 0 138 0 0 139 139 139 140 140 140 141 141 141
142 142 142 143 143 143 144 144 144 145 0 0 146 0 0 146 0 0 147 0 0
148 0 0 149 0 0 149 0 0 150 150 150 151 151 151 151 151 151 152 152
152 152 152 152 153 153 153 154 154 154 154 0 0 155 0 0 155 0 0 156 0
0 156 0 0 157 0 0 157 0 0 158 0 0 158 0 0
37 0 16 37 0 17 36 0 17 36 0 17 35 0 17 34 0 18 34 0 18 33 0 18 32 0
18 32 0 18 31 0 19 30 0 19 30 0 19 29 0 19 28 0 20 28 0 20 27 0 20 26
0 20 26 0 20 25 0 21 24 0 21 24 0 21 23 0 21 22 0 22 22 0 22 21 0 22
20 0 22 20 0 23 19 0 23 18 0 23 17 0 23 17 0 24 16 0 24 15 0 24 15 0
24 14 0 25 13 0 25 12 0 25 12 0 25 11 0 26 10 0 26 9 0 26 9 0 26 8 0
27 7 0 27 6 0 27 6 0 27 5 0 27 4 0 27 3 0 28 110 110 110 112 112 112
114 114 114 116 0 0 118 0 0 119 0 0 121 0 0 123 0 0 124 0 0 126 0 0
127 127 127 129 129 129 130 130 130 131 131 131 133 133 133 134 134
134 135 0 0 136 0 0 137 0 0 138 0 0 139 0 0 140 0 0 141 141 141 142
142 142 143 143 143 144 144 144 145 145 145 145 145 145 146 0 0 147 0
0 148 0 0 148 0 0 149 0 0 150 0 0 151 151 151 151 151 151 152 152 152
152 152 152 153 153 153 154 154 154 154 154 154 155 155 155 155 0 0
156 0 0 156 0 0 157 0 0 157 0 0 158 0 0 158 0 0 159 0 0
37 0 16 37 0 17 36 0 17 35 0 17 35 0 17 34 0 17 33 0 18 33 0 18 32 0
18 32 0 18 31 0 19 30 0 19 30 0 19 29 0 19 28 0 19 28 0 20 27 0 20 26
0 20 26 0 20 25 0 21 24 0 21 24 0 21 23 0 21 22 0 22 22 0 22 21 0 22
20 0 22 20 0 23 19 0 23 18 0 23 17 0 23 17 0 24 16 0 24 15 0 24 15 0
24 14 0 25 13 0 25 12 0 25 12 0 25 11 0 26 10 0 26 9 0 26 9 0 26 8 0
26 7 0 27 6 0 27 6 0 27 5 0 27 4 0 27 3 0 27 111 111 111 113 113 113
115 115 115 117 117 117 119 119 119 120 0 0 122 0 0 124 0 0 125 0 0
127 0 0 128 0 0 129 129 129 131 131 131 132 132 132 133 133 133 134
134 134 136 136 136 137 0 0 138 0 0 139 0 0 140 0 0 141 0 0 142 142
142 143 143 143 144 144 144 144 144 144 145 145 145 146 146 146 147 0
0 148 0 0 148 0 0 149 0 0 150 0 0 150 0 0 151 0 0 152 152 152 152 152
152 153 153 153 154 154 154 154 154 154 155 155 155 155 155 155 156 0
0 156 0 0 157 0 0 157 0 0 158 0 0 158 0 0 159 0 0 159 0 0
37 0 16 37 0 16 36 0 17 35 0 17 35 0 17 34 0 17 33 0 18 33 0 18 32 0
18 31 0 18 31 0 18 30 0 19 30 0 19 29 0 19 28 0 19 28 0 20 27 0 20 26
0 20 26 0 20 25 0 21 24 0 21 24 0 21 23 0 21 22 0 21 22 0 22 21 0 22
20 0 22 20 0 22 19 0 23 18 0 23 17 0 23 17 0 23 16 0 24 15 0 24 15 0
24 14 0 24 13 0 25 12 0 25 12 0 25 11 0 25 10 0 26 9 0 26 9 0 26 8 0
26 7 0 27 6 0 27 6 0 27 5 0 27 4 0 27 3 0 27 112 112 112 114 114 114
116 116 116 118 118 118 120 120 120 121 121 121 123 123 123 124 0 0
126 0 0 127 0 0 129 0 0 130 0 0 132 132 132 133 133 133 134 134 134
135 135 135 136 136 136 137 0 0 138 0 0 140 0 0 141 0 0 141 0 0 142 0
0 143 143 143 144 144 144 145 145 145 146 146 146 147 147 147 147 147
147 148 0 0 149 0 0 150 0 0 150 0 0 151 0 0 152 0 0 152 152 152 153
153 153 154 154 154 154 154 154 155 155 155 155 155 155 156 156 156
156 156 156 157 0 0 157 0 0 158 0 0 158 0 0 159 0 0 159 0 0 160 0 0
37 0 16 37 0 16 36 0 17 35 0 17 35 0 17 34 0 17 33 0 17 33 0 18 32 0
18 31 0 18 31 0 18 30 0 19 29 0 19 29 0 19 28 0 19 27 0 19 27 0 20 26
0 20 26 0 20 25 0 20 24 0 21 24 0 21 23 0 21 22 0 21 22 0 22 21 0 22
20 0 22 19 0 22 19 0 23 18 0 23 17 0 23 17 0 23 16 0 24 15 0 24 15 0
24 14 0 24 13 0 25 12 0 25 12 0 25 11 0 25 10 0 26 9 0 26 9 0 26 8 0
26 7 0 26 6 0 27 6 0 27 5 0 27 4 0 27 3 0 27 113 0 0 115 0 0 117 117
117 119 119 119 120 120 120 122 122 122 124 124 124 125 125 125 127 0
0 128 0 0 130 0 0 131 0 0 132 0 0 134 134 134 135 135 135 136 136 136
137 137 137 138 138 138 139 0 0 140 0 0 141 0 0 142 0 0 143 0 0 144 0
0 145 145 145 146 146 146 147 147 147 147 147 147 148 148 148 149 0 0
150 0 0 150 0 0 151 0 0 152 0 0 152 0 0 153 0 0 154 154 154 154 154
154 155 155 155 155 155 155 156 156 156 156 156 156 157 157 157 157 0
0 158 0 0 158 0 0 159 0 0 159 0 0 160 0 0 160 0 0
37 0 16 36 0 16 36 0 17 35 0 17 35 0 17 34 0 17 33 0 17 33 0 18 32 0
18 31 0 18 31 0 18 30 0 18 29 0 19 29 0 19 28 0 19 27 0 19 27 0 20 26
0 20 25 0 20 25 0 20 24 0 21 23 0 21 23 0 21 22 0 21 21 0 22 21 0 22
20 0 22 19 0 22 19 0 23 18 0 23 17 0 23 17 0 23 16 0 24 15 0 24 15 0
24 14 0 24 13 0 24 12 0 25 12 0 25 11 0 25 10 0 25 9 0 26 9 0 26 8 0
26 7 0 26 6 0 26 6 0 27 5 0 27 4 0 27 3 0 27 114 0 0 116 0 0 118 0 0
120 0 0 121 121 121 123 123 123 125 125 125 126 126 126 128 128 128
129 0 0 131 0 0 132 0 0 133 0 0 134 0 0 136 136 136 137 137 137 138
138 138 139 139 139 140 140 140 141 0 0 142 0 0 143 0 0 144 0 0 145 0
0 146 146 146 146 146 146 147 147 147 148 148 148 149 149 149 149 149
149 150 0 0 151 0 0 152 0 0 152 0 0 153 0 0 154 0 0 154 154 154 155
155 155 155 155 155 156 156 156 156 156 156 157 157 157 157 157 157
158 158 158 158 0 0 159 0 0 159 0 0 160 0 0 160 0 0 161 0 0
37 0 16 36 0 16 36 0 16 35 0 17 34 0 17 34 0 17 33 0 17 33 0 18 32 0
18 31 0 18 31 0 18 30 0 18 29 0 19 29 0 19 28 0 19 27 0 19 27 0 20 26
0 20 25 0 20 25 0 20 24 0 20 23 0 21 23 0 21 22 0 21 21 0 21 21 0 22
20 0 22 19 0 22 19 0 22 18 0 23 17 0 23 17 0 23 16 0 23 15 0 24 15 0
24 14 0 24 13 0 24 12 0 25 12 0 25 11 0 25 10 0 25 9 0 26 9 0 26 8 0
26 7 0 26 6 0 26 6 0 27 5 0 27 4 0 27 3 0 27 115 0 0 117 0 0 119 0 0
121 0 0 122 0 0 124 124 124 126 126 126 127 127 127 129 129 129 130
130 130 131 0 0 133 0 0 134 0 0 135 0 0 136 0 0 137 137 137 139 139
139 140 140 140 141 141 141 142 0 0 143 0 0 144 0 0 144 0 0 145 0 0
146 0 0 147 147 147 148 148 148 149 149 149 149 149 149 150 150 150
151 0 0 152 0 0 152 0 0 153 0 0 153 0 0 154 0 0 155 0 0 155 155 155
156 156 156 156 156 156 157 157 157 157 157 157 158 158 158 158 158
158 159 0 0 159 0 0 160 0 0 160 0 0 161 0 0 161 0 0
37 0 16 36 0 16 36 0 16 35 0 17 34 0 17 34 0 17 33 0 17 32 0 17 32 0
18 31 0 18 31 0 18 30 0 18 29 0 19 29 0 19 28 0 19 27 0 19 27 0 19 26
0 20 25 0 20 25 0 20 24 0 20 23 0 21 23 0 21 22 0 21 21 0 21 21 0 22
20 0 22 19 0 22 19 0 22 18 0 23 17 0 23 17 0 23 16 0 23 15 0 24 14 0
24 14 0 24 13 0 24 12 0 25 12 0 25 11 0 25 10 0 25 9 0 25 9 0 26 8 0
26 7 0 26 6 0 26 6 0 26 5 0 27 4 0 27 3 0 27 116 116 116 118 0 0 120
0 0 121 0 0 123 0 0 125 0 0 126 126 126 128 128 128 129 129 129 131
131 131 132 132 132 133 0 0 135 0 0 136 0 0 137 0 0 138 138 138 139
139 139 140 140 140 141 141 141 142 142 142 143 0 0 144 0 0 145 0 0
146 0 0 147 0 0 148 148 148 148 148 148 149 149 149 150 150 150 151
151 151 151 151 151 152 0 0 153 0 0 153 0 0 154 0 0 155 0 0 155 0 0
156 156 156 156 156 156 157 157 157 158 158 158 158 158 158 159 159
159 159 159 159 160 0 0 160 0 0 160 0 0 161 0 0 161 0 0 162 0 0
37 0 16 36 0 16 36 0 16 35 0 16 34 0 17 34 0 17 33 0 17 32 0 17 32 0
18 31 0 18 31 0 18 30 0 18 29 0 18 29 0 19 28 0 19 27 0 19 27 0 19 26
0 20 25 0 20 25 0 20 24 0 20 23 0 21 23 0 21 22 0 21 21 0 21 21 0 22
20 0 22 19 0 22 19 0 22 18 0 22 17 0 23 17 0 23 16 0 23 15 0 23 14 0
24 14 0 24 13 0 24 12 0 24 12 0 25 11 0 25 10 0 25 9 0 25 9 0 26 8 0
26 7 0 26 6 0 26 6 0 26 5 0 26 4 0 27 3 0 27 117 117 117 119 119 119
121 121 121 122 0 0 124 0 0 126 0 0 127 0 0 129 129 129 130 130 130
132 132 132 133 133 133 134 0 0 136 0 0 137 0 0 138 0 0 139 0 0 140
140 140 141 141 141 142 142 142 143 143 143 144 0 0 145 0 0 146 0 0
147 0 0 148 0 0 148 0 0 149 149 149 150 150 150 151 151 151 151 151
151 152 152 152 153 0 0 153 0 0 154 0 0 155 0 0 155 0 0 156 0 0 156 0
0 157 157 157 158 158 158 158 158 158 159 159 159 159 159 159 160 160
160 160 160 160 161 0 0 161 0 0 161 0 0 162 0 0 162 0 0
37 0 16 36 0 16 36 0 16 35 0 16 34 0 17 34 0 17 33 0 17 32 0 17 32 0
17 31 0 18 30 0 18 30 0 18 29 0 18 29 0 19 28 0 19 27 0 19 27 0 19 26
0 20 25 0 20 25 0 20 24 0 20 23 0 20 23 0 21 22 0 21 21 0 21 21 0 21
20 0 22 19 0 22 19 0 22 18 0 22 17 0 23 17 0 23 16 0 23 15 0 23 14 0
24 14 0 24 13 0 24 12 0 24 12 0 25 11 0 25 10 0 25 9 0 25 9 0 25 8 0
26 7 0 26 6 0 26 6 0 26 5 0 26 4 0 27 3 0 27 118 118 118 120 120 120
122 122 122 123 123 123 125 0 0 127 0 0 128 0 0 130 0 0 131 131 131
132 132 132 134 134 134 135 135 135 136 0 0 137 0 0 139 0 0 140 0 0
141 141 141 142 142 142 143 143 143 144 144 144 145 145 145 146 0 0
147 0 0 147 0 0 148 0 0 149 0 0 150 150 150 151 151 151 151 151 151
152 152 152 153 153 153 153 153 153 154 0 0 155 0 0 155 0 0 156 0 0
156 0 0 157 0 0 158 158 158 158 158 158 159 159 159 159 159 159 160
160 160 160 160 160 161 161 161 161 0 0 162 0 0 162 0 0 162 0 0 163 0
0
37 0 16 36 0 16 36 0 16 35 0 16 34 0 17 34 0 17 33 0 17 32 0 17 32 0
17 31 0 18 30 0 18 30 0 18 29 0 18 28 0 19 28 0 19 27 0 19 27 0 19 26
0 19 25 0 20 25 0 20 24 0 20 23 0 20 23 0 21 22 0 21 21 0 21 21 0 21
20 0 22 19 0 22 19 0 22 18 0 22 17 0 23 17 0 23 16 0 23 15 0 23 14 0
24 14 0 24 13 0 24 12 0 24 12 0 24 11 0 25 10 0 25 9 0 25 9 0 25 8 0
26 15 152 76 14 142 71 12 124 62 5 0 26 4 0 26 3 0 27 119 119 119 121
121 121 123 123 123 124 124 124 126 126 126 128 0 0 129 0 0 131 0 0
132 0 0 133 133 133 135 135 135 136 136 136 137 137 137 138 0 0 139 0
0 141 0 0 142 0 0 143 143 143 144 144 144 145 145 145 145 145 145 146
0 0 147 0 0 148 0 0 149 0 0 150 0 0 150 150 150 151 151 151 152 152
152 153 153 153 153 153 153 154 154 154 155 0 0 155 0 0 156 0 0 156 0
0 157 0 0 158 0 0 158 158 158 159 159 159 159 159 159 160 160 160 160
160 160 161 161 161 161 161 161 162 0 0 162 0 0 162 0 0 163 0 0 163 0
0
37 0 16 36 0 16 35 0 16 35 0 16 34 0 16 34 0 17 33 0 17 32 0 17 32 0
17 31 0 18 30 0 18 30 0 18 29 0 18 28 0 18 28 0 19 27 0 19 27 0 19 26
0 19 25 0 20 25 0 20 24 0 20 23 0 20 23 0 21 22 0 21 21 0 21 21 0 21
20 0 22 19 0 22 19 0 22 18 0 22 17 0 22 17 0 23 16 0 23 15 0 23 14 0
23 14 0 24 13 0 24 12 0 24 12 0 24 11 0 25 10 0 25 19 187 93 18 185
92 18 178 89 17 168 84 16 157 78 14 144 72 13 128 64 11 109 55 8 82
41 120 0 0 122 0 0 123 123 123 125 125 125 127 127 127 128 128 128
130 0 0 131 0 0 133 0 0 134 134 134 135 135 135 137 137 137 138 138
138 139 0 0 140 0 0 141 0 0 142 0 0 143 143 143 144 144 144 145 145
145 146 146 146 147 147 147 148 0 0 149 0 0 150 0 0 150 0 0 151 0 0
152 152 152 153 153 153 153 153 153 154 154 154 155 155 155 155 0 0
156 0 0 156 0 0 157 0 0 158 0 0 158 0 0 159 0 0 159 159 159 160 160
160 160 160 160 161 161 161 161 161 161 162 162 162 162 162 162 163 0
0 163 0 0 163 0 0 164 0 0
37 0 16 36 0 16 35 0 16 35 0 16 34 0 16 33 0 17 33 0 17 32 0 17 32 0
17 31 0 17 30 0 18 30 0 18 29 0 18 28 0 18 28 0 19 27 0 19 26 0 19 26
0 19 25 0 20 25 0 20 24 0 20 23 0 20 23 0 20 22 0 21 21 0 21 21 0 21
20 0 21 19 0 22 19 0 22 18 0 22 17 0 22 17 0 23 16 0 23 15 0 23 14 0
23 14 0 24 13 0 24 12 0 24 12 0 24 19 190 95 20 198 99 20 195 98 19
189 94 18 180 90 17 171 85 16 159 80 15 147 73 13 133 66 12 117 58 10
98 49 7 73 37 123 0 0 124 0 0 126 126 126 128 128 128 129 129 129 131
0 0 132 0 0 134 0 0 135 0 0 136 136 136 138 138 138 139 139 139 140
140 140 141 0 0 142 0 0 143 0 0 144 0 0 145 145 145 146 146 146 147
147 147 148 148 148 149 0 0 149 0 0 150 0 0 151 0 0 152 0 0 152 152
152 153 153 153 154 154 154 155 155 155 155 155 155 156 156 156 156 0
0 157 0 0 158 0 0 158 0 0 159 0 0 159 0 0 160 160 160 160 160 160 161
161 161 161 161 161 162 162 162 162 162 162 163 163 163 163 0 0 164 0
0 164 0 0 164 0 0
37 0 15 36 0 16 35 0 16 35 0 16 34 0 16 33 0 17 33 0 17 32 0 17 32 0
17 31 0 17 30 0 18 30 0 18 29 0 18 28 0 18 28 0 19 27 0 19 26 0 19 26
0 19 25 0 19 25 0 20 24 0 20 23 0 20 23 0 20 22 0 21 21 0 21 21 0 21
20 0 21 19 0 22 19 0 22 18 0 22 17 0 22 16 0 23 16 0 23 15 0 23 14 0
23 14 0 24 13 0 24 12 0 24 19 194 97 20 203 102 20 201 100 20 195 98
19 188 94 18 179 90 17 169 85 16 158 79 15 146 73 13 133 66 12 118 59
10 101 50 8 81 40 5 55 27 125 0 0 127 0 0 129 129 129 130 130 130 132
132 132 133 0 0 135 0 0 136 0 0 137 137 137 138 138 138 140 140 140
141 141 141 142 0 0 143 0 0 144 0 0 145 0 0 146 146 146 147 147 147
148 148 148 148 148 148 149 0 0 150 0 0 151 0 0 152 0 0 152 0 0 153
153 153 154 154 154 155 155 155 155 155 155 156 156 156 156 156 156
157 0 0 158 0 0 158 0 0 159 0 0 159 0 0 160 0 0 160 160 160 161 161
161 161 161 161 162 162 162 162 162 162 163 163 163 163 163 163 164 0
0 164 0 0 164 0 0 165 0 0
37 0 15 36 0 16 35 0 16 35 0 16 34 0 16 33 0 16 33 0 17 32 0 17 32 0
17 31 0 17 30 0 18 30 0 18 29 0 18 28 0 18 28 0 18 27 0 19 26 0 19 26
0 19 25 0 19 24 0 20 24 0 20 23 0 20 23 0 20 22 0 21 21 0 21 21 0 21
20 0 21 19 0 22 19 0 22 18 0 22 17 0 22 16 0 22 16 0 23 15 0 23 14 0
23 14 0 23 13 0 24 12 0 24 20 203 102 20 203 101 20 199 99 19 192 96
18 184 92 18 176 88 17 166 83 15 155 77 14 143 71 13 130 65 12 115 58
10 100 50 8 81 41 6 60 30 3 30 15 128 0 0 130 130 130 131 131 131 133
133 133 134 134 134 135 0 0 137 0 0 138 0 0 139 139 139 140 140 140
141 141 141 143 0 0 144 0 0 145 0 0 146 0 0 146 146 146 147 147 147
148 148 148 149 149 149 150 150 150 151 0 0 152 0 0 152 0 0 153 0 0
154 0 0 154 154 154 155 155 155 156 156 156 156 156 156 157 157 157
158 0 0 158 0 0 159 0 0 159 0 0 160 0 0 160 0 0 161 161 161 162 162
162 162 162 162 162 162 162 163 163 163 163 163 163 164 164 164 164 0
0 165 0 0 165 0 0 165 0 0
37 0 15 36 0 16 35 0 16 35 0 16 34 0 16 33 0 16 33 0 17 32 0 17 31 0
17 31 0 17 30 0 17 30 0 18 29 0 18 28 0 18 28 0 18 27 0 19 26 0 19 26
0 19 25 0 19 24 0 20 24 0 20 23 0 20 23 0 20 22 0 20 21 0 21 21 0 21
20 0 21 19 0 21 19 0 22 18 0 22 17 0 22 16 0 22 16 0 23 15 0 23 14 0
23 14 0 23 13 0 24 20 198 99 20 202 101 20 199 100 19 194 97 19 188
94 18 180 90 17 171 85 16 161 80 15 150 75 14 138 69 13 125 63 11 112
56 10 96 48 8 79 39 6 59 29 3 34 17 3 26 13 131 0 0 132 132 132 134
134 134 135 135 135 136 0 0 138 0 0 139 0 0 140 140 140 141 141 141
142 142 142 143 143 143 144 0 0 145 0 0 146 0 0 147 0 0 148 148 148
149 149 149 150 150 150 151 151 151 151 0 0 152 0 0 153 0 0 154 0 0
154 0 0 155 155 155 156 156 156 156 156 156 157 157 157 158 158 158
158 0 0 159 0 0 159 0 0 160 0 0 161 0 0 161 0 0 162 0 0 162 162 162
163 163 163 163 163 163 163 163 163 164 164 164 164 164 164 165 165
165 165 0 0 166 0 0 166 0 0
36 0 15 36 0 15 35 0 16 35 0 16 34 0 16 33 0 16 33 0 17 32 0 17 31 0
17 31 0 17 30 0 17 30 0 18 29 0 18 28 0 18 28 0 18 27 0 19 26 0 19 26
0 19 25 0 19 24 0 19 24 0 20 23 0 20 22 0 20 22 0 20 21 0 21 21 0 21
20 0 21 19 0 21 18 0 22 18 0 22 17 0 22 16 0 22 16 0 23 15 0 23 14 0
23 14 0 23 13 0 24 20 197 98 20 197 99 19 194 97 19 188 94 57 221 130
30 186 99 16 165 82 15 155 77 14 144 72 13 132 66 12 120 60 11 106 53
9 91 46 7 75 37 6 55 28 3 33 16 3 26 13 131 0 0 133 133 133 134 134
134 136 136 136 137 0 0 138 0 0 140 0 0 141 0 0 142 142 142 143 143
143 144 144 144 145 0 0 146 0 0 147 0 0 148 0 0 149 149 149 150 150
150 151 151 151 151 151 151 152 0 0 153 0 0 154 0 0 154 0 0 155 0 0
156 156 156 156 156 156 157 157 157 158 158 158 158 158 158 159 159
159 160 0 0 160 0 0 161 0 0 161 0 0 162 0 0 162 0 0 163 163 163 163
163 163 164 164 164 164 164 164 164 164 164 165 165 165 165 165 165
166 0 0 166 0 0 166 0 0
36 0 15 36 0 15 35 0 16 35 0 16 34 0 16 33 0 16 33 0 16 32 0 17 31 0
17 31 0 17 30 0 17 30 0 18 29 0 18 28 0 18 28 0 18 27 0 18 26 0 19 26
0 19 25 0 19 24 0 19 24 0 20 23 0 20 22 0 20 22 0 20 21 0 21 20 0 21
20 0 21 19 0 21 18 0 22 18 0 22 17 0 22 16 0 22 16 0 23 15 0 23 14 0
23 14 0 23 18 180 90 19 191 96 19 191 95 19 187 94 18 181 91 19 177
89 17 167 83 16 158 79 15 148 74 14 137 69 13 126 63 11 113 57 10 100
50 9 85 43 7 69 34 5 50 25 3 28 14 3 26 13 132 0 0 134 0 0 135 135
135 137 137 137 138 138 138 139 0 0 140 0 0 142 0 0 143 143 143 144
144 144 145 145 145 146 0 0 147 0 0 148 0 0 149 0 0 150 150 150 150
150 150 151 151 151 152 152 152 153 153 153 154 0 0 154 0 0 155 0 0
156 0 0 156 156 156 157 157 157 158 158 158 158 158 158 159 159 159
160 160 160 160 0 0 161 0 0 161 0 0 162 0 0 162 0 0 163 0 0 163 163
163 164 164 164 164 164 164 165 165 165 165 165 165 165 165 165 166
166 166 166 0 0 167 0 0 167 0 0
36 0 15 36 0 15 35 0 16 34 0 16 34 0 16 33 0 16 33 0 16 32 0 17 31 0
17 31 0 17 30 0 17 29 0 18 29 0 18 28 0 18 28 0 18 27 0 18 26 0 19 26
0 19 25 0 19 24 0 19 24 0 20 23 0 20 22 0 20 22 0 20 21 0 21 20 0 21
20 0 21 19 0 21 18 0 21 18 0 22 17 0 22 16 0 22 16 0 22 15 0 23 14 0
23 14 0 23 18 177 88 18 184 92 18 183 92 18 179 90 17 174 87 17 167
83 16 159 79 15 150 75 14 140 70 13 129 65 12 118 59 11 106 53 9 92
46 8 78 39 6 62 31 4 43 22 3 26 13 3 26 13 133 0 0 135 0 0 136 136
136 138 138 138 139 139 139 140 0 0 141 0 0 142 0 0 144 144 144 145
145 145 146 146 146 147 147 147 148 0 0 149 0 0 149 0 0 150 150 150
151 151 151 152 152 152 153 153 153 154 154 154 154 0 0 155 0 0 156 0
0 156 0 0 157 0 0 158 158 158 158 158 158 159 159 159 160 160 160 160
160 160 161 0 0 161 0 0 162 0 0 162 0 0 163 0 0 163 0 0 164 164 164
164 164 164 165 165 165 165 165 165 166 166 166 166 166 166 166 166
166 167 0 0 167 0 0 168 0 0
36 0 15 36 0 15 35 0 15 34 0 16 34 0 16 33 0 16 33 0 16 32 0 17 31 0
17 31 0 17 30 0 17 29 0 17 29 0 18 28 0 18 28 0 18 27 0 18 26 0 19 26
0 19 25 0 19 24 0 19 24 0 20 23 0 20 22 0 20 22 0 20 21 0 20 20 0 21
20 0 21 19 0 21 18 0 21 18 0 22 17 0 22 16 0 22 16 0 22 15 0 23 14 0
23 14 0 23 17 168 84 17 175 87 17 174 87 17 170 85 16 165 82 16 158
79 15 150 75 14 141 70 13 131 66 12 121 60 11 110 55 10 97 49 8 84 42
7 69 35 5 53 27 4 35 18 3 26 13 3 26 13 3 26 13 136 0 0 137 137 137
138 138 138 140 140 140 141 0 0 142 0 0 143 0 0 144 144 144 145 145
145 146 146 146 147 147 147 148 0 0 149 0 0 150 0 0 151 0 0 152 152
152 153 153 153 153 153 153 154 154 154 155 0 0 156 0 0 156 0 0 157 0
0 158 0 0 158 158 158 159 159 159 160 160 160 160 160 160 161 161 161
161 0 0 162 0 0 162 0 0 163 0 0 163 0 0 164 0 0 164 164 164 165 165
165 165 165 165 166 166 166 166 166 166 167 167 167 167 167 167 167 0
0 168 0 0 168 0 0
36 0 15 36 0 15 35 0 15 34 0 16 34 0 16 33 0 16 33 0 16 32 0 17 31 0
17 31 0 17 30 0 17 29 0 17 29 0 18 28 0 18 28 0 18 27 0 18 26 0 19 26
0 19 25 0 19 24 0 19 24 0 19 23 0 20 22 0 20 22 0 20 21 0 20 20 0 21
20 0 21 19 0 21 18 0 21 18 0 22 17 0 22 16 0 22 16 0 22 15 0 23 14 0
23 14 0 23 16 156 78 16 164 82 16 164 82 16 160 80 15 155 77 15 148
74 14 140 70 13 131 66 12 122 61 11 111 56 10 100 50 9 88 44 7 75 37
6 60 30 4 44 22 3 26 13 3 26 13 3 26 13 135 0 0 137 0 0 138 0 0 100 0
0 102 0 0 102 0 0 102 0 0 0 0 101 0 0 100 0 0 99 0 0 97 0 0 96 94 0 0
92 0 0 90 0 0 87 0 0 84 0 0 0 0 79 154 154 154 155 155 155 156 0 0
156 0 0 157 0 0 158 0 0 158 0 0 159 159 159 160 160 160 160 160 160
161 161 161 161 161 161 162 0 0 162 0 0 163 0 0 164 0 0 164 0 0 164 0
0 165 165 165 165 165 165 166 166 166 166 166 166 167 167 167 167 167
167 167 167 167 168 0 0 168 0 0 169 0 0
36 0 15 36 0 15 35 0 15 34 0 16 34 0 16 33 0 16 33 0 16 32 0 16 31 0
17 31 0 17 30 0 17 29 0 17 29 0 18 28 0 18 28 0 18 27 0 18 26 0 18 26
0 19 25 0 19 24 0 19 24 0 19 23 0 20 22 0 20 22 0 20 21 0 20 20 0 21
20 0 21 19 0 21 18 0 21 18 0 22 17 0 22 16 0 22 16 0 22 15 0 22 14 0
23 14 0 23 14 139 70 15 152 76 15 152 76 15 149 74 14 144 72 14 137
69 13 130 65 12 121 60 11 111 56 10 101 51 9 90 45 8 78 39 6 64 32 5
49 25 3 33 17 3 26 13 0 0 122 0 0 124 0 0 124 0 0 124 124 0 0 123 0 0
122 0 0 121 0 0 120 0 0 118 0 0 0 0 117 0 0 116 0 0 114 0 0 113 0 0
111 0 0 109 0 0 107 106 0 0 104 0 0 101 0 0 99 0 0 97 0 0 0 0 94 0 0
91 0 0 88 0 0 83 77 0 0 160 160 160 160 160 160 161 161 161 161 161
161 162 162 162 163 0 0 163 0 0 164 0 0 164 0 0 165 0 0 165 0 0 166
166 166 166 166 166 166 166 166 167 167 167 167 167 167 168 168 168
168 168 168 168 0 0 169 0 0 169 0 0
36 0 15 36 0 15 35 0 15 34 0 16 34 0 16 33 0 16 33 0 16 32 0 16 31 0
17 31 0 17 30 0 17 29 0 17 29 0 17 28 0 18 28 0 18 27 0 18 26 0 18 26
0 19 25 0 19 24 0 19 24 0 19 23 0 20 22 0 20 22 0 20 21 0 20 20 0 21
20 0 21 19 0 21 18 0 21 18 0 21 17 0 22 16 0 22 16 0 22 15 0 22 14 0
23 14 0 23 13 0 23 14 136 68 14 139 69 14 136 68 13 132 66 13 125 63
12 118 59 11 110 55 10 100 50 9 90 45 8 78 39 7 66 33 5 53 26 139 0 0
0 0 141 0 0 141 0 0 141 0 0 140 0 0 140 0 0 139 138 0 0 136 0 0 135 0
0 134 0 0 132 0 0 131 0 0 129 0 0 0 0 128 0 0 126 0 0 124 0 0 123 0 0
121 0 0 119 0 0 117 116 0 0 114 0 0 112 0 0 110 0 0 107 0 0 105 0 0
103 0 0 0 0 100 0 0 97 0 0 94 0 0 91 86 0 0 80 0 0 163 163 163 163 0
0 164 0 0 164 0 0 165 0 0 165 0 0 166 0 0 166 166 166 167 167 167 167
167 167 167 167 167 168 168 168 168 168 168 169 169 169 169 0 0 169 0
0 170 0 0
36 0 15 36 0 15 35 0 15 34 0 15 34 0 16 33 0 16 32 0 16 32 0 16 31 0
17 31 0 17 30 0 17 29 0 17 29 0 17 28 0 18 27 0 18 27 0 18 26 0 18 26
0 19 25 0 19 24 0 19 24 0 19 23 0 20 22 0 20 22 0 20 21 0 20 20 0 20
20 0 21 19 0 21 18 0 21 18 0 21 17 0 22 16 0 22 16 0 22 15 0 22 14 0
23 14 0 23 13 0 23 12 117 58 12 123 62 12 122 61 12 118 59 11 112 56
11 105 53 10 97 48 9 88 44 8 77 39 7 66 33 154 0 0 156 0 0 156 0 0 0
0 156 0 0 155 0 0 154 0 0 153 0 0 152 0 0 150 0 0 149 148 0 0 146 0 0
144 0 0 143 0 0 141 0 0 140 0 0 138 0 0 0 0 136 0 0 135 0 0 133 0 0
131 0 0 129 0 0 127 0 0 126 0 0 124 122 0 0 120 0 0 118 0 0 116 0 0
113 0 0 111 0 0 0 0 109 0 0 106 0 0 103 0 0 100 0 0 97 0 0 93 89 0 0
83 0 0 72 0 0 165 0 0 166 0 0 166 0 0 167 0 0 167 167 167 168 168 168
168 168 168 168 168 168 169 169 169 169 169 169 170 170 170 170 0 0
170 0 0
36 0 15 36 0 15 35 0 15 34 0 15 34 0 16 33 0 16 32 0 16 32 0 16 31 0
16 31 0 17 30 0 17 29 0 17 29 0 17 28 0 18 27 0 18 27 0 18 26 0 18 26
0 19 25 0 19 24 0 19 24 0 19 23 0 19 22 0 20 22 0 20 21 0 20 20 0 20
20 0 21 19 0 21 18 0 21 18 0 21 17 0 22 16 0 22 16 0 22 15 0 22 14 0
23 14 0 23 13 0 23 12 0 23 10 104 52 11 105 53 10 103 51 10 98 49 9
91 45 8 83 41 7 74 37 160 0 0 168 0 0 170 0 0 170 0 0 169 0 0 0 0 168
0 0 167 0 0 165 0 0 164 0 0 162 0 0 161 0 0 159 158 0 0 156 0 0 154 0
0 152 0 0 151 0 0 149 0 0 147 0 0 145 0 0 0 0 144 0 0 142 0 0 140 0 0
138 0 0 136 0 0 134 0 0 132 0 0 130 128 0 0 126 0 0 124 0 0 122 0 0
120 0 0 118 0 0 115 0 0 0 0 113 0 0 110 0 0 108 0 0 105 0 0 101 0 0
97 93 0 0 87 0 0 79 0 0 167 0 0 167 0 0 168 168 168 168 168 168 169
169 169 169 169 169 169 169 169 170 170 170 170 170 170 170 0 0 171 0
0
36 0 15 36 0 15 35 0 15 34 0 15 34 0 16 33 0 16 32 0 16 32 0 16 31 0
16 31 0 17 30 0 17 29 0 17 29 0 17 28 0 18 27 0 18 27 0 18 26 0 18 26
0 18 25 0 19 24 0 19 24 0 19 23 0 19 22 0 20 22 0 20 21 0 20 20 0 20
20 0 21 19 0 21 18 0 21 18 0 21 180 144 18 174 140 17 147 118 15 111
89 11 65 52 7 14 0 23 13 0 23 12 0 23 7 72 36 8 84 42 8 84 42 8 80 40
7 74 37 7 67 33 6 58 29 178 0 0 182 0 0 182 0 0 182 0 0 181 0 0 0 0
179 0 0 178 0 0 176 0 0 174 0 0 172 0 0 171 0 0 169 167 0 0 165 0 0
163 0 0 161 0 0 159 0 0 158 0 0 156 0 0 154 0 0 152 0 0 0 0 150 0 0
148 0 0 146 0 0 144 0 0 142 0 0 140 0 0 138 0 0 136 134 0 0 132 0 0
130 0 0 128 0 0 126 0 0 123 0 0 121 0 0 0 0 119 0 0 116 0 0 113 0 0
110 0 0 107 0 0 103 99 0 0 95 0 0 88 0 0 80 0 0 168 168 168 169 169
169 169 169 169 169 169 169 170 170 170 170 170 170 171 171 171 171 0
0 171 0 0
36 0 15 36 0 15 35 0 15 34 0 15 34 0 16 33 0 16 32 0 16 32 0 16 31 0
16 31 0 17 30 0 17 29 0 17 29 0 17 28 0 17 27 0 18 27 0 18 26 0 18 26
0 18 25 0 19 24 0 19 24 0 19 23 0 19 22 0 20 22 0 20 21 0 20 20 0 20
20 0 21 19 0 21 18 0 21 195 156 20 197 157 20 174 139 17 145 116 14
109 87 11 68 54 7 26 20 3 149 134 134 149 134 134 149 134 134 5 49 25
6 60 30 6 59 30 5 55 27 5 48 24 139 0 0 184 0 0 191 0 0 193 0 0 192 0
0 191 0 0 0 0 189 0 0 188 0 0 186 0 0 184 0 0 182 0 0 180 0 0 178 0 0
176 174 0 0 172 0 0 170 0 0 168 0 0 166 0 0 164 0 0 162 0 0 160 0 0 0
0 158 0 0 156 0 0 154 0 0 152 0 0 150 0 0 148 0 0 146 0 0 144 0 0 142
139 0 0 137 0 0 135 0 0 133 0 0 131 0 0 128 0 0 126 0 0 123 0 0 0 0
120 0 0 118 0 0 115 0 0 111 0 0 108 0 0 104 99 0 0 93 0 0 85 0 0 72 0
0 170 170 170 170 170 170 170 170 170 171 171 171 171 171 171 171 0 0
172 0 0
36 0 15 36 0 15 35 0 15 34 0 15 34 0 15 33 0 16 32 0 16 32 0 16 31 0
16 31 0 17 30 0 17 29 0 17 29 0 17 28 0 17 27 0 18 27 0 18 26 0 18 26
0 18 25 0 19 24 0 19 24 0 19 23 0 19 22 0 20 22 0 20 21 0 20 20 0 20
20 0 20 19 0 21 152 137 137 201 161 20 187 150 19 163 130 16 133 106
13 98 78 10 57 46 6 26 20 3 26 20 3 150 135 135 150 135 135 149 134
134 149 134 134 3 29 14 3 29 14 3 26 13 3 26 13 172 0 0 192 0 0 198 0
0 200 0 0 200 0 0 0 0 198 0 0 197 0 0 195 0 0 193 0 0 191 0 0 189 0 0
186 0 0 184 182 0 0 180 0 0 178 0 0 176 0 0 174 0 0 171 0 0 169 0 0
167 0 0 165 0 0 0 0 163 0 0 161 0 0 159 0 0 157 0 0 155 0 0 153 0 0
150 0 0 148 0 0 146 144 0 0 142 0 0 139 0 0 137 0 0 135 0 0 132 0 0
129 0 0 127 0 0 0 0 124 0 0 121 0 0 118 0 0 114 0 0 110 0 0 106 101 0
0 95 0 0 86 0 0 73 0 0 171 171 171 171 171 171 171 171 171 172 172
172 172 0 0 172 0 0
36 0 15 35 0 15 35 0 15 34 0 15 34 0 15 33 0 16 32 0 16 32 0 16 31 0
16 31 0 16 30 0 17 29 0 17 29 0 17 28 0 17 27 0 18 27 0 18 26 0 18 26
0 18 25 0 19 24 0 19 24 0 19 23 0 19 22 0 19 154 138 138 153 138 138
153 138 138 153 138 138 153 137 137 152 137 137 186 148 19 170 136 17
145 116 14 115 92 11 80 64 8 40 32 4 26 20 3 26 20 3 150 135 135 150
135 135 150 135 135 150 135 135 150 135 135 26 23 23 3 26 13 3 26 13
103 0 0 165 0 0 189 0 0 198 0 0 202 0 0 0 0 204 0 0 203 0 0 202 0 0
200 0 0 199 0 0 196 0 0 194 0 0 192 190 0 0 188 0 0 185 0 0 183 0 0
181 0 0 179 0 0 177 0 0 174 0 0 172 0 0 0 0 170 0 0 168 0 0 166 0 0
163 0 0 161 0 0 159 0 0 157 0 0 154 0 0 152 0 0 150 148 0 0 145 0 0
143 0 0 140 0 0 138 0 0 135 0 0 132 0 0 129 0 0 0 0 126 0 0 123 0 0
119 0 0 115 0 0 111 0 0 106 100 0 0 93 0 0 83 0 0 65 0 0 172 172 172
172 172 172 172 172 172 173 0 0 173 0 0
36 0 15 35 0 15 35 0 15 34 0 15 34 0 15 33 0 16 32 0 16 32 0 16 31 0
16 31 0 16 30 0 17 29 0 17 29 0 17 28 0 17 27 0 18 27 0 18 26 0 18
155 140 140 155 140 140 155 139 139 155 139 139 154 139 139 154 139
139 154 139 139 154 138 138 153 138 138 153 138 138 153 138 138 153
138 138 161 129 16 146 117 15 122 97 12 92 73 9 57 45 6 26 20 3 26 20
3 26 20 3 151 136 136 151 136 136 151 136 136 150 135 135 150 135 135
150 135 135 150 135 135 150 135 135 149 135 135 72 0 0 136 0 0 169 0
0 187 0 0 0 0 196 0 0 201 0 0 203 0 0 203 0 0 203 0 0 202 0 0 200 0 0
198 196 0 0 194 0 0 192 0 0 190 0 0 188 0 0 185 0 0 183 0 0 181 0 0
178 0 0 176 0 0 0 0 174 0 0 172 0 0 169 0 0 167 0 0 165 0 0 162 0 0
160 0 0 158 0 0 155 153 0 0 150 0 0 148 0 0 145 0 0 142 0 0 139 0 0
136 0 0 133 0 0 130 0 0 0 0 127 0 0 123 0 0 119 0 0 114 0 0 109 0 0
102 95 0 0 85 0 0 69 0 0 31 0 0 172 172 172 173 0 0 173 0 0 173 0 0
36 0 14 35 0 15 35 0 15 34 0 15 34 0 15 33 0 16 32 0 16 32 0 16 31 0
16 31 0 16 30 0 17 29 0 17 157 141 141 156 141 141 156 141 141 156
140 140 156 140 140 155 140 140 155 140 140 155 140 140 155 139 139
155 139 139 154 139 139 154 139 139 154 139 139 154 138 138 154 138
138 153 138 138 153 138 138 124 99 12 115 92 12 92 74 9 63 50 6 28 22
3 26 20 3 26 20 3 26 23 23 26 23 23 26 23 23 26 23 23 26 23 23 26 23
23 151 136 136 150 135 135 150 135 135 150 135 135 150 135 135 26 0 0
84 0 0 126 0 0 0 0 154 0 0 173 0 0 185 0 0 192 0 0 196 0 0 198 0 0
199 0 0 199 0 0 198 197 0 0 195 0 0 194 0 0 192 0 0 190 0 0 188 0 0
185 0 0 183 0 0 181 0 0 0 0 179 0 0 176 0 0 174 0 0 171 0 0 169 0 0
167 0 0 164 0 0 162 0 0 159 0 0 156 154 0 0 151 0 0 148 0 0 145 0 0
142 0 0 139 0 0 136 0 0 132 0 0 0 0 128 0 0 124 0 0 119 0 0 114 0 0
108 0 0 101 0 0 92 80 0 0 62 0 0 26 0 0 173 173 173 173 0 0 174 0 0
174 0 0
36 0 14 35 0 15 35 0 15 34 0 15 34 0 15 33 0 15 158 142 142 158 142
142 158 142 142 157 142 142 157 141 141 157 141 141 157 141 141 156
141 141 156 141 141 156 140 140 156 140 140 156 140 140 155 140 140
155 140 140 155 140 140 155 139 139 155 139 139 154 139 139 154 139
139 154 139 139 154 138 138 154 138 138 153 138 138 153 138 138 70 56
7 53 43 5 26 20 3 26 20 3 26 20 3 26 23 23 26 23 23 26 23 23 26 23 23
26 23 23 26 23 23 151 136 136 151 136 136 151 136 136 151 136 136 151
135 135 150 135 135 150 135 135 150 135 135 26 0 0 0 0 63 0 0 97 0 0
125 0 0 145 0 0 161 0 0 171 0 0 179 0 0 184 0 0 187 195 6 6 224 34 34
201 11 11 190 0 0 188 0 0 187 0 0 185 0 0 184 0 0 182 0 0 0 0 180 0 0
178 0 0 175 0 0 173 0 0 171 0 0 168 0 0 166 0 0 163 0 0 160 0 0 157
155 0 0 152 0 0 149 0 0 145 0 0 142 0 0 138 0 0 134 0 0 130 0 0 126 0
0 0 0 120 0 0 115 0 0 108 0 0 101 0 0 91 0 0 79 63 0 0 38 0 0 26 0 0
174 174 174 174 0 0 174 0 0 175 0 0
36 0 14 159 143 143 159 143 143 159 143 143 159 143 143 158 142 142
158 142 142 158 142 142 158 142 142 157 142 142 157 141 141 157 141
141 157 141 141 157 141 141 156 141 141 156 141 141 156 140 140 156
140 140 156 140 140 155 140 140 155 140 140 155 140 140 155 139 139
155 139 139 154 139 139 154 139 139 154 139 139 154 139 139 154 138
138 154 138 138 153 138 138 153 138 138 26 23 23 26 23 23 26 23 23 26
23 23 26 23 23 152 137 137 152 137 137 152 137 137 152 137 137 152
136 136 151 136 136 151 136 136 151 136 136 151 136 136 151 136 136
151 136 136 150 135 135 150 135 135 150 135 135 0 0 26 0 0 28 0 0 58
0 0 82 0 0 103 0 0 121 0 0 135 0 0 146 155 0 0 161 0 0 166 0 0 169 0
0 171 0 0 173 0 0 173 0 0 173 0 0 173 0 0 172 0 0 0 0 170 0 0 169 0 0
167 0 0 165 0 0 163 0 0 161 0 0 158 0 0 155 0 0 152 0 0 149 146 0 0
143 0 0 139 0 0 135 0 0 131 0 0 126 0 0 121 0 0 115 0 0 0 0 108 0 0
101 0 0 92 0 0 81 0 0 68 0 0 51 0 0 27 26 0 0 26 23 23 26 23 23 142
128 128 142 127 127 175 0 0
159 143 143 159 143 143 159 143 143 159 143 143 159 143 143 158 142
142 158 142 142 158 142 142 158 142 142 157 142 142 157 142 142 157
141 141 157 141 141 157 141 141 156 141 141 156 141 141 156 140 140
156 140 140 156 140 140 156 140 140 155 140 140 155 140 140 155 140
140 155 139 139 155 139 139 155 139 139 154 139 139 154 139 139 154
139 139 154 138 138 154 138 138 154 138 138 153 138 138 153 138 138
153 138 138 153 138 138 153 137 137 153 137 137 152 137 137 152 137
137 152 137 137 152 137 137 152 137 137 152 136 136 151 136 136 151
136 136 151 136 136 151 136 136 151 136 136 151 136 136 151 136 136
150 135 135 26 23 23 26 23 23 0 0 26 0 0 26 0 0 34 0 0 53 0 0 70 84 0
0 97 0 0 108 0 0 117 0 0 124 0 0 130 0 0 135 0 0 139 0 0 141 0 0 143
0 0 0 0 144 0 0 144 0 0 144 0 0 143 0 0 142 0 0 141 0 0 139 0 0 136 0
0 134 0 0 131 127 0 0 123 0 0 119 0 0 114 0 0 109 0 0 103 0 0 96 0 0
88 0 0 79 0 0 0 0 69 0 0 56 0 0 41 0 0 26 0 0 26 26 0 0 26 23 23 26
23 23 26 23 23 26 23 23 143 128 128 142 128 128
159 143 143 159 143 143 159 143 143 159 143 143 158 143 143 158 142
142 158 142 142 158 142 142 158 142 142 157 142 142 157 142 142 157
141 141 157 141 141 157 141 141 157 141 141 156 141 141 156 141 141
156 140 140 156 140 140 156 140 140 156 140 140 155 140 140 155 140
140 155 140 140 155 139 139 155 139 139 155 139 139 154 139 139 154
139 139 154 139 139 154 139 139 154 138 138 154 138 138 153 138 138
153 138 138 153 138 138 153 138 138 153 138 138 153 137 137 153 137
137 152 137 137 152 137 137 152 137 137 152 137 137 152 137 137 152
137 137 152 136 136 151 136 136 151 136 136 151 136 136 151 136 136
151 136 136 151 136 136 151 136 136 26 23 23 26 23 23 26 23 23 0 0 26
26 0 0 26 0 0 26 0 0 29 0 0 40 0 0 50 0 0 59 0 0 67 0 0 74 0 0 80 0 0
85 0 0 0 0 89 0 0 92 0 0 94 0 0 95 0 0 96 0 0 95 0 0 95 0 0 93 0 0 91
0 0 88 85 0 0 81 0 0 76 0 0 71 0 0 64 0 0 57 0 0 48 0 0 38 0 0 0 0 27
0 0 26 0 0 26 0 0 26 0 0 26 26 23 23 26 23 23 26 23 23 26 23 23 26 23
23 26 23 23 26 23 23 143 129 129
159 143 143 159 143 143 159 143 143 159 143 143 158 143 143 158 142
142 158 142 142 158 142 142 158 142 142 158 142 142 157 142 142 157
141 141 157 141 141 157 141 141 157 141 141 157 141 141 156 141 141
156 141 141 156 140 140 156 140 140 156 140 140 156 140 140 155 140
140 155 140 140 155 140 140 155 139 139 155 139 139 155 139 139 154
139 139 154 139 139 154 139 139 154 139 139 154 138 138 154 138 138
154 138 138 153 138 138 153 138 138 153 138 138 153 138 138 153 138
138 153 137 137 153 137 137 152 137 137 152 137 137 152 137 137 152
137 137 152 137 137 152 137 137 152 136 136 151 136 136 151 136 136
151 136 136 151 136 136 151 136 136 151 136 136 151 136 136 26 23 23
26 23 23 26 23 23 26 23 23 26 23 23 26 23 23 26 0 0 26 0 0 26 0 0 26
0 0 26 0 0 26 0 0 0 0 26 0 0 26 0 0 26 0 0 26 0 0 27 0 0 29 0 0 30 0
0 30 0 0 29 0 0 28 0 0 26 26 0 0 26 0 0 26 0 0 26 0 0 26 0 0 26 0 0
26 0 0 26 0 0 0 0 26 26 23 23 26 23 23 26 23 23 26 23 23 26 23 23 26
23 23 26 23 23 26 23 23 26 23 23 26 23 23 26 23 23 26 23 23
159 143 143 159 143 143 159 143 143 159 143 143 158 143 143 158 142
142 158 142 142 158 142 142 158 142 142 158 142 142 157 142 142 157
142 142 157 141 141 157 141 141 157 141 141 157 141 141 156 141 141
156 141 141 156 141 141 156 140 140 156 140 140 156 140 140 156 140
140 155 140 140 155 140 140 155 140 140 155 139 139 155 139 139 155
139 139 155 139 139 154 139 139 154 139 139 154 139 139 154 139 139
154 138 138 154 138 138 154 138 138 153 138 138 153 138 138 153 138
138 153 138 138 153 138 138 153 137 137 153 137 137 152 137 137 152
137 137 152 137 137 152 137 137 152 137 137 152 137 137 152 137 137
152 136 136 151 136 136 151 136 136 151 136 136 151 136 136 151 136
136 151 136 136 151 136 136 26 23 23 26 23 23 26 23 23 26 23 23 26 23
23 26 23 23 26 23 23 26 23 23 26 23 23 26 23 23 26 23 23 0 0 26 0 0
26 0 0 26 0 0 26 0 0 26 0 0 26 0 0 26 26 0 0 26 0 0 26 0 0 26 0 0 26
0 0 26 23 23 26 23 23 26 23 23 26 23 23 26 23 23 26 23 23 26 23 23 26
23 23 26 23 23 26 23 23 26 23 23 26 23 23 26 23 23 26 23 23 26 23 23
26 23 23 26 23 23 26 23 23
159 143 143 159 143 143 159 143 143 159 143 143 158 143 143 158 142
142 158 142 142 158 142 142 158 142 142 158 142 142 157 142 142 157
142 142 157 141 141 157 141 141 157 141 141 157 141 141 157 141 141
156 141 141 156 141 141 156 140 140 156 140 140 156 140 140 156 140
140 156 140 140 155 140 140 155 140 140 155 140 140 155 139 139 155
139 139 155 139 139 155 139 139 154 139 139 154 139 139 154 139 139
154 139 139 154 139 139 154 138 138 154 138 138 154 138 138 153 138
138 153 138 138 153 138 138 153 138 138 153 138 138 153 137 137 153
137 137 152 137 137 152 137 137 152 137 137 152 137 137 152 137 137
152 137 137 152 137 137 152 136 136 151 136 136 151 136 136 151 136
136 151 136 136 151 136 136 151 136 136 151 136 136 151 136 136 26 23
23 26 23 23 26 23 23 26 23 23 26 23 23 26 23 23 26 23 23 26 23 23 26
23 23 26 23 23 26 23 23 26 23 23 26 23 23 26 23 23 26 23 23 26 23 23
26 23 23 26 23 23 26 23 23 26 23 23 26 23 23 26 23 23 26 23 23 26 23
23 26 23 23 26 23 23 26 23 23 26 23 23 26 23 23 26 23 23 26 23 23 26
23 23 26 23 23 26 23 23 26 23 23 26 23 23 26 23 23 146 131 131
159 143 143 159 143 143 159 143 143 159 143 143 158 143 143 158 142
142 158 142 142 158 142 142 158 142 142 158 142 142 158 142 142 157
142 142 157 141 141 157 141 141 157 141 141 157 141 141 157 141 141
157 141 141 156 141 141 156 141 141 156 140 140 156 140 140 156 140
140 156 140 140 156 140 140 155 140 140 155 140 140 155 140 140 155
140 140 155 139 139 155 139 139 155 139 139 154 139 139 154 139 139
154 139 139 154 139 139 154 139 139 154 138 138 154 138 138 154 138
138 153 138 138 153 138 138 153 138 138 153 138 138 153 138 138 153
138 138 153 137 137 153 137 137 153 137 137 152 137 137 152 137 137
152 137 137 152 137 137 152 137 137 152 137 137 152 136 136 152 136
136 151 136 136 151 136 136 151 136 136 151 136 136 151 136 136 151
136 136 151 136 136 151 136 136 150 135 135 26 23 23 26 23 23 26 23
23 26 23 23 26 23 23 26 23 23 26 23 23 26 23 23 26 23 23 26 23 23 26
23 23 26 23 23 26 23 23 26 23 23 26 23 23 26 23 23 26 23 23 26 23 23
26 23 23 26 23 23 26 23 23 26 23 23 26 23 23 26 23 23 26 23 23 26 23
23 26 23 23 26 23 23 26 23 23 26 23 23 26 23 23 26 23 23 146 132 132
146 132 132
159 143 143 159 143 143 159 143 143 159 143 143 158 143 143 158 142
142 158 142 142 158 142 142 158 142 142 158 142 142 158 142 142 157
142 142 157 142 142 157 141 141 157 141 141 157 141 141 157 141 141
157 141 141 156 141 141 156 141 141 156 141 141 156 140 140 156 140
140 156 140 140 156 140 140 156 140 140 155 140 140 155 140 140 155
140 140 155 140 140 155 139 139 155 139 139 155 139 139 155 139 139
154 139 139 154 139 139 154 139 139 154 139 139 154 139 139 154 138
138 154 138 138 154 138 138 153 138 138 153 138 138 153 138 138 153
138 138 153 138 138 153 138 138 153 137 137 153 137 137 153 137 137
152 137 137 152 137 137 152 137 137 152 137 137 152 137 137 152 137
137 152 137 137 152 136 136 151 136 136 151 136 136 151 136 136 151
136 136 151 136 136 151 136 136 151 136 136 151 136 136 151 136 136
150 135 135 150 135 135 150 135 135 26 23 23 26 23 23 26 23 23 26 23
23 26 23 23 26 23 23 26 23 23 26 23 23 26 23 23 26 23 23 26 23 23 26
23 23 26 23 23 26 23 23 26 23 23 26 23 23 26 23 23 26 23 23 26 23 23
26 23 23 26 23 23 26 23 23 26 23 23 26 23 23 147 132 132 147 132 132
147 132 132 147 132 132 147 132 132
159 143 143 159 143 143 159 143 143 159 143 143 158 143 143 158 142
142 158 142 142 158 142 142 158 142 142 158 142 142 158 142 142 157
142 142 157 142 142 157 141 141 157 141 141 157 141 141 157 141 141
157 141 141 157 141 141 156 141 141 156 141 141 156 141 141 156 140
140 156 140 140 156 140 140 156 140 140 156 140 140 155 140 140 155
140 140 155 140 140 155 140 140 155 139 139 155 139 139 155 139 139
155 139 139 154 139 139 154 139 139 154 139 139 154 139 139 154 139
139 154 139 139 154 138 138 154 138 138 154 138 138 153 138 138 153
138 138 153 138 138 153 138 138 153 138 138 153 138 138 153 137 137
153 137 137 153 137 137 152 137 137 152 137 137 152 137 137 152 137
137 152 137 137 152 137 137 152 137 137 152 136 136 152 136 136 151
136 136 151 136 136 151 136 136 151 136 136 151 136 136 151 136 136
151 136 136 151 136 136 151 135 135 150 135 135 150 135 135 150 135
135 150 135 135 150 135 135 150 135 135 150 135 135 150 135 135 150
135 135 149 134 134 149 134 134 149 134 134 26 23 23 26 23 23 26 23
23 149 134 134 149 134 134 148 134 134 148 134 134 148 133 133 148
133 133 148 133 133 148 133 133 148 133 133 148 133 133 148 133 133
147 133 133 147 133 133 147 132 132
159 143 143 159 143 143 159 143 143 159 143 143 158 143 143 158 143
143 158 142 142 158 142 142 158 142 142 158 142 142 158 142 142 158
142 142 157 142 142 157 142 142 157 141 141 157 141 141 157 141 141
157 141 141 157 141 141 157 141 141 156 141 141 156 141 141 156 141
141 156 140 140 156 140 140 156 140 140 156 140 140 156 140 140 155
140 140 155 140 140 155 140 140 155 140 140 155 139 139 155 139 139
155 139 139 155 139 139 155 139 139 154 139 139 154 139 139 154 139
139 154 139 139 154 139 139 154 138 138 154 138 138 154 138 138 154
138 138 153 138 138 153 138 138 153 138 138 153 138 138 153 138 138
153 138 138 153 137 137 153 137 137 153 137 137 152 137 137 152 137
137 152 137 137 152 137 137 152 137 137 152 137 137 152 137 137 152
137 137 152 136 136 151 136 136 151 136 136 151 136 136 151 136 136
151 136 136 151 136 136 151 136 136 151 136 136 151 136 136 151 135
135 150 135 135 150 135 135 150 135 135 150 135 135 150 135 135 150
135 135 150 135 135 150 135 135 150 135 135 149 134 134 149 134 134
149 134 134 149 134 134 149 134 134 149 134 134 149 134 134 149 134
134 149 134 134 148 134 134 148 133 133 148 133 133 148 133 133 148
133 133 148 133 133 148 133 133 148 133 133
159 143 143 159 143 143 159 143 143 159 143 143 158 143 143 158 143
143 158 142 142 158 142 142 158 142 142 158 142 142 158 142 142 158
142 142 157 142 142 157 142 142 157 142 142 157 141 141 157 141 141
157 141 141 157 141 141 157 141 141 157 141 141 156 141 141 156 141
141 156 141 141 156 140 140 156 140 140 156 140 140 156 140 140 156
140 140 155 140 140 155 140 140 155 140 140 155 140 140 155 140 140
155 139 139 155 139 139 155 139 139 155 139 139 154 139 139 154 139
139 154 139 139 154 139 139 154 139 139 154 139 139 154 138 138 154
138 138 154 138 138 154 138 138 153 138 138 153 138 138 153 138 138
153 138 138 153 138 138 153 138 138 153 138 138 153 137 137 153 137
137 152 137 137 152 137 137 152 137 137 152 137 137 152 137 137 152
137 137 152 137 137 152 137 137 152 136 136 152 136 136 151 136 136
151 136 136 151 136 136 151 136 136 151 136 136 151 136 136 151 136
136 151 136 136 151 136 136 151 135 135 150 135 135 150 135 135 150
135 135 150 135 135 150 135 135 150 135 135 150 135 135 150 135 135
150 135 135 149 135 135 149 134 134 149 134 134 149 134 134 149 134
134 149 134 134 149 134 134 149 134 134 149 134 134 148 134 134 148
134 134 148 133 133 148 133 133 148 133 133
159 143 143 159 143 143 159 143 143 159 143 143 159 143 143 158 143
143 158 142 142 158 142 142 158 142 142 158 142 142 158 142 142 158
142 142 158 142 142 157 142 142 157 142 142 157 141 141 157 141 141
157 141 141 157 141 141 157 141 141 157 141 141 156 141 141 156 141
141 156 141 141 156 141 141 156 140 140 156 140 140 156 140 140 156
140 140 156 140 140 155 140 140 155 140 140 155 140 140 155 140 140
155 140 140 155 139 139 155 139 139 155 139 139 155 139 139 155 139
139 154 139 139 154 139 139 154 139 139 154 139 139 154 139 139 154
139 139 154 138 138 154 138 138 154 138 138 154 138 138 153 138 138
153 138 138 153 138 138 153 138 138 153 138 138 153 138 138 153 138
138 153 137 137 153 137 137 152 137 137 152 137 137 152 137 137 152
137 137 152 137 137 152 137 137 152 137 137 152 137 137 152 137 137
152 136 136 151 136 136 151 136 136 151 136 136 151 136 136 151 136
136 151 136 136 151 136 136 151 136 136 151 136 136 151 136 136 150
135 135 150 135 135 150 135 135 150 135 135 150 135 135 150 135 135
150 135 135 150 135 135 150 135 135 150 135 135 149 135 135 149 134
134 149 134 134 149 134 134 149 134 134 149 134 134 149 134 134 149
134 134 149 134 134 149 134 134 148 134 134
159 143 143 159 143 143 159 143 143 159 143 143 159 143 143 158 143
143 158 142 142 158 142 142 158 142 142 158 142 142 158 142 142 158
142 142 158 142 142 157 142 142 157 142 142 157 142 142 157 141 141
157 141 141 157 141 141 157 141 141 157 141 141 157 141 141 156 141
141 156 141 141 156 141 141 156 141 141 156 140 140 156 140 140 156
140 140 156 140 140 156 140 140 156 140 140 155 140 140 155 140 140
155 140 140 155 140 140 155 139 139 155 139 139 155 139 139 155 139
139 155 139 139 154 139 139 154 139 139 154 139 139 154 139 139 154
139 139 154 139 139 154 138 138 154 138 138 154 138 138 154 138 138
153 138 138 153 138 138 153 138 138 153 138 138 153 138 138 153 138
138 153 138 138 153 138 138 153 137 137 153 137 137 153 137 137 152
137 137 152 137 137 152 137 137 152 137 137 152 137 137 152 137 137
152 137 137 152 137 137 152 136 136 152 136 136 151 136 136 151 136
136 151 136 136 151 136 136 151 136 136 151 136 136 151 136 136 151
136 136 151 136 136 151 136 136 150 135 135 150 135 135 150 135 135
150 135 135 150 135 135 150 135 135 150 135 135 150 135 135 150 135
135 150 135 135 149 135 135 149 134 134 149 134 134 149 134 134 149
134 134 149 134 134 149 134 134 149 134 134
